<svg data="logoboxwidth:376,logoboxheight:200" style="background:#791719;" xmlns="http://www.w3.org/2000/svg" xmlns:xlink="http://www.w3.org/1999/xlink" width="400" height="400" viewBox="0 0 400 400">
<g data-name="icon" fill="#ea9521" data="id:6444290,original_width:115.5072,original_height:115.5072,imagick_width_starter:80,imagick_fullwidth_starter:90,imagick_height_starter:80,imagick_fullheight_starter:90,imagick_heightgap_starter:10,imagick_widthgap_starter:10,scale_icon:1.44384" width="80" height="80" transform="translate(21.7008,127.808) scale(1.44384)">
              <path d="m29.837,50v-.658h9.796c.364,0,.658.295.658.658,0,5.351,4.354,9.705,9.707,9.705s9.709-4.354,9.709-9.705c0-.364.296-.658.658-.658h9.798v.658c0,11.116-9.045,20.161-20.165,20.161s-20.161-9.045-20.161-20.161Zm59.505-.658h-4.9v-4.909c1.717-.544,2.962-2.123,2.962-3.981,0-2.307-1.92-4.184-4.279-4.184s-4.284,1.877-4.284,4.184c0,1.859,1.247,3.437,2.967,3.981v4.908h-9.012v.658c0,12.57-10.227,22.795-22.798,22.795s-22.795-10.226-22.795-22.795v-.658h-9.012v-4.909c1.717-.544,2.962-2.123,2.962-3.981,0-2.307-1.92-4.184-4.279-4.184s-4.284,1.877-4.284,4.184c0,1.858,1.247,3.437,2.967,3.981v4.908h-4.9c-.364,0-.658.295-.658.658v5.058c0,.257.15.491.382.598l7.654,3.533,2.863,6.912-2.914,7.911c-.089.242-.03.512.151.693l7.156,7.157c.183.181.453.24.693.151l7.911-2.915,6.914,2.864,3.531,7.653c.109.234.341.384.599.384h10.117c.257,0,.489-.15.598-.384l3.536-7.653,6.914-2.864,7.911,2.915c.24.089.51.03.693-.151l7.151-7.157c.181-.181.242-.451.153-.693l-2.915-7.911,2.864-6.912,7.658-3.533c.232-.107.382-.341.382-.598v-5.058c0-.364-.295-.658-.658-.658Zm-59.505-14.28c0-.471-.25-.905-.658-1.141l-8.009-4.626c.064-.287.099-.585.099-.891,0-2.307-1.92-4.184-4.279-4.184s-4.284,1.877-4.284,4.184,1.922,4.184,4.284,4.184c1.078,0,2.064-.393,2.817-1.039l7.398,4.273v13.519h2.634v-14.28Zm42.96.761l7.396-4.272c.754.645,1.74,1.038,2.819,1.038,2.36,0,4.279-1.877,4.279-4.184s-1.92-4.184-4.279-4.184-4.284,1.877-4.284,4.184c0,.307.035.605.099.893l-8.005,4.624c-.408.235-.658.67-.658,1.141v14.28h2.634v-13.519Zm-32.238-12.72h3.916v22.479c0,.364.295.658.658.658h9.733c.364,0,.658-.295.658-.658v-22.479h3.916c.253,0,.484-.145.594-.374.109-.228.078-.499-.08-.697l-9.443-11.783c-.125-.156-.314-.247-.514-.247s-.389.091-.514.247l-9.438,11.783c-.158.198-.189.469-.08.697.11.228.34.373.593.373Zm-3.735,23.137c.727,0,1.317-.59,1.317-1.317v-12.143c0-.727-.59-1.317-1.317-1.317s-1.317.59-1.317,1.317v12.143c0,.727.59,1.317,1.317,1.317Zm26.346,0c.727,0,1.317-.59,1.317-1.317v-12.143c0-.727-.59-1.317-1.317-1.317s-1.317.59-1.317,1.317v12.143c0,.727.59,1.317,1.317,1.317Z"/>
              </g><g data-name="business_name" fill="#ffffff" data="id:215,original_width:192.2144,original_height:66.138288172043,imagick_width_starter:93,imagick_height_starter:32,imagick_fullwidth_starter:93,imagick_fullheight_starter:41,imagick_heightgap_starter:9,imagick_widthgap_starter:0,scale_business_name:2.0668215053763" transform="translate(171.6464,148.32946236559) scale(2.0668215053763)" width="192.2144" height="66.138288172043"><path d="M20.12,9.76l4.12,0l0,29.96l-4.12,0l0-16.56l-5.4,16.84l-3.48,0l-0.44-1.36l-4.96-15.48l0,16.84l-4.12,0l0-26.16l-1.72,0l0-4.12l3.72,0l0,0.04l2.12,0l0,0.2l0.08-0.04l7.04,22.04l7.08-22.04l0.08,0.04l0-0.2z M25.84,9.76l19.04,0l0,5.88l-4.16,0l0-1.72l-3.16,0l0,25.4l0.72,0.72l-5.6,0l0.72-0.72l0-25.4l-3.4,0l0,1.72l-4.16,0l0-5.88z M58.4,39.28l0.72,0.72l-11.48,0l0.68-0.72l0.04,0l0-21.24l-1.88,0l0-4.12l12.04,0l0,4.16l-5.96,0l0,2.88l5.24,0l0.72-0.68l0,5.48l-0.64-0.6l-5.32,0l0,10.68l5.84,0l0,3.44z M75.92,35.84l0,4.16l-14.12,0l0.72-0.72l0-21.16l-1.8,0l0-4.16l14.72,0l0,4.2l-8.76,0l0,17.68l9.24,0z M87,40.04l0.68-0.72l0-13.92l-4.68,0l0,13.96l0.68,0.68l-5.44,0l0.64-0.68l0-21.24l-1.76,0l0-4.12l5.84,0l0.04,7.28l4.68,0l0-7.24l4.12,0l0,25.32l0.68,0.68l-5.48,0z"/></g></svg>