<svg xmlns="http://www.w3.org/2000/svg" xml:space="preserve" width="100" height="100" data-id="lg_f3rEbPtVKkUoKYq4dP"
    data-version="1" viewBox="0 0 1500 1500">
    <path fill="#bc2922" stroke="transparent" d="M0 0h1500v1500H0z" />
    <g data-padding="20">
        <g transform="translate(-569.073 -573.935)scale(1.71898)">
            <path fill="#fff"
                d="M511.935 566.032h510.845c13.78 0 24.96 7.638 24.96 17.05v279.363c0 6.475-5.361 12.387-13.852 15.275l-256 86.9a25.071 17.125 0 0 1-22.252-.013L500.79 877.732a24.888 17 0 0 1-13.816-15.262V583.082c0-9.412 11.18-17.05 24.96-17.05" />
            <rect width="509.785" height="212.44" x="232.455" y="460.077" fill="none" rx="0" ry="0"
                transform="translate(280.47 162.5)" />
            <path fill="#bc2922"
                d="M557.088 787.277h-18.98v-161.35h18.98Zm43.92 0h-17.51v-161.35h14.3l37.4 109.83-1.92-46.66v-63.17h16.77v161.35h-13.93l-36.21-110.74 1.1 40.7Zm92.94 0h-17.51v-161.35h14.3l37.4 109.83-1.92-46.66v-63.17h16.78v161.35h-13.94l-36.21-110.74 1.1 40.7Zm105.7 1.83q-12.1 0-19.11-5.32-7.02-5.31-10-16.04t-2.98-26.86v-71.14q0-13.93 2.75-24.2t9.81-15.95 19.99-5.68q9.71 0 15.86 3.25 6.14 3.26 9.48 9.26 3.35 6 4.63 14.44 1.29 8.43 1.29 18.88v71.14q0 16.13-2.89 26.86t-9.81 16.04q-6.92 5.32-19.02 5.32m0-16.32q5.22 0 7.97-2.98t3.76-9.94q1.01-6.97 1.01-18.8v-72.42q0-14.48-2.29-21.45t-9.99-6.97q-7.98 0-10.77 6.93-2.8 6.92-2.8 21.4v72.51q0 11.92 1.01 18.84t3.85 9.9 8.25 2.98m95.8 14.49h-22.1l-26.86-161.35h18.06l10.73 68.3 9.16 60.04h.37l7.98-60.04 9.26-68.3h17.87Zm71.68 1.83q-12.1 0-19.11-5.32-7.01-5.31-9.99-16.04t-2.98-26.86v-71.14q0-13.93 2.75-24.2t9.81-15.95q7.05-5.68 19.98-5.68 9.72 0 15.86 3.25 6.14 3.26 9.49 9.26 3.34 6 4.63 14.44 1.28 8.43 1.28 18.88v71.14q0 16.13-2.89 26.86-2.88 10.73-9.81 16.04-6.92 5.32-19.02 5.32m0-16.32q5.23 0 7.98-2.98t3.76-9.94q1-6.97 1-18.8v-72.42q0-14.48-2.29-21.45t-9.99-6.97q-7.98 0-10.77 6.93-2.8 6.92-2.8 21.4v72.51q0 11.92 1.01 18.84t3.85 9.9 8.25 2.98" />
            <g transform="matrix(4.15 0 0 -.69 280.22 351.85)">
                <filter id="a" width="162%" height="162%" x="-31%" y="-31%">
                    <feGaussianBlur in="SourceAlpha" stdDeviation="3" />
                    <feOffset dx="3" dy="-3" result="oBlur" />
                    <feFlood flood-color="#000" flood-opacity="1" />
                    <feComposite in2="oBlur" operator="in" />
                    <feMerge>
                        <feMergeNode />
                        <feMergeNode in="SourceGraphic" />
                    </feMerge>
                </filter>
                <path fill="#bc2922" d="M207.433-730.72h-80l40-80Z" filter="url(#a)" transform="translate(-50 -50)" />
            </g>
        </g>
        <path fill="transparent" stroke="transparent" stroke-width="1.783" d="M250 386.364h1000v727.272H250z" />
    </g>
</svg>